# xmcd CD database file
#
# Track frame offsets:
#	150
#	30498
#	52745
#	80855
#	102882
#	148015
#	172655
#	193353
#	220185
#	239902
#
# Disc length: 3589 seconds
#
# Revision: 0
# Processed by: cddbd v1.5.1PL0 Copyright (c) Steve Scherf et al.
# Submitted via: CDex 1.51
#
DISCID=8b0e030a
DTITLE=Shinji Hashimoto and Mariko Kajiwara - GATEONE
DYEAR=2005
DGENRE=Jazz
TTITLE0=I'll Close My Eyes
TTITLE1=No Kidding
TTITLE2=Don't Go Strangers
TTITLE3=There Is No Greater Love
TTITLE4=Sambalero
TTITLE5=I'll Be Seeing You
TTITLE6=It Could Happen To You
TTITLE7=Daisuki De Chu!
TTITLE8=The Cantaloupe Woman
TTITLE9=Love Me Tender
EXTD=YEAR: 2005
EXTT0=
EXTT1=
EXTT2=
EXTT3=
EXTT4=
EXTT5=
EXTT6=
EXTT7=
EXTT8=
EXTT9=
PLAYORDER=
